<svg width="328" height="87" viewBox="0 0 328 87" fill="none" xmlns="http://www.w3.org/2000/svg">
<path d="M113.343 29.5094H134.468V36.1876H121.415V41.8383H132.922V48.174H121.415V53.8247H134.468V60.6741H113.343V29.5094ZM111.625 45.0918C111.625 54.5096 105.614 60.6741 96.3395 60.6741H84.6606V29.5094H96.3395C105.614 29.5094 111.625 35.6739 111.625 45.0918ZM103.381 45.0918C103.381 39.6123 100.805 36.1876 96.1678 36.1876H92.5611V53.8247H96.1678C100.805 53.8247 103.381 50.5712 103.381 45.0918ZM171.737 29.5094H183.072V60.6741H175.172V55.0233H164.18C161.26 58.6193 156.967 61.359 150.612 61.359C140.822 61.359 134.811 55.0233 134.811 45.0918C134.811 35.3314 140.822 28.8245 149.753 28.8245C157.482 28.8245 162.463 33.6191 163.321 41.1534H155.249C154.562 37.215 152.329 36.0163 149.581 36.0163C145.46 36.0163 142.883 38.9273 142.883 44.5781C142.883 50.5712 145.803 54.1672 150.784 54.1672C154.562 54.1672 157.482 52.1124 160.573 47.3178L171.737 29.5094ZM175.172 37.215L168.13 48.6877H175.172V37.215ZM311.54 29.5094V46.6329L301.235 29.5094H292.991V60.6741H300.72V42.8657L311.54 60.6741H319.441V29.5094H311.54ZM185.133 36.1876H193.034V60.6741H201.106V36.1876H209.006V29.5094H185.133V36.1876ZM291.102 45.0918C291.102 54.8521 284.747 61.359 275.301 61.359C265.855 61.359 259.5 55.0233 259.5 45.0918C259.5 35.1602 265.855 28.8245 275.301 28.8245C284.747 28.8245 291.102 35.3314 291.102 45.0918ZM282.858 45.0918C282.858 39.0986 279.938 36.0163 275.301 36.0163C270.664 36.0163 267.744 39.0986 267.744 45.0918C267.744 51.0849 270.664 54.1672 275.301 54.1672C279.938 54.1672 282.858 51.0849 282.858 45.0918ZM229.788 41.3246H218.968V29.5094H210.896V60.6741H218.968V48.174H229.788V60.6741H237.86V29.5094H229.788V41.3246ZM248.165 29.5094H240.093V60.6741H260.187V53.9959H247.993V29.5094H248.165ZM61.8181 22.8313C44.4715 22.8313 22.8312 40.8109 22.8312 55.7083C22.8312 63.4138 28.8424 67.3522 36.5711 67.3522C42.2388 67.3522 49.2805 65.2974 55.9787 61.1878V31.393C54.2612 34.4752 45.8455 46.8041 38.9756 53.311C35.5406 56.7357 32.7926 58.1056 30.3882 58.1056C27.8119 58.1056 26.4379 56.3932 26.4379 53.6535C26.4379 41.6671 46.7042 25.9135 60.2724 25.9135C65.7683 25.9135 69.375 28.3108 69.375 33.1054C69.375 37.5574 66.4553 43.0369 61.3029 48.0027V57.2494C70.2338 50.2288 75.3862 41.3246 75.3862 34.1328C75.558 26.7697 69.7185 22.8313 61.8181 22.8313Z" fill="white"/>
</svg>
